<?xml version="1.0" encoding="utf-8"?>
<!-- Generator: Adobe Illustrator 15.0.0, SVG Export Plug-In . SVG Version: 6.00 Build 0)  -->
<!DOCTYPE svg PUBLIC "-//W3C//DTD SVG 1.1//EN" "http://www.w3.org/Graphics/SVG/1.1/DTD/svg11.dtd">
<svg version="1.1" id="Layer_1" xmlns="http://www.w3.org/2000/svg" xmlns:xlink="http://www.w3.org/1999/xlink" x="0px" y="0px"
	 width="150px" height="150px" viewBox="-63 -63 150 150" enable-background="new -63 -63 150 150" xml:space="preserve">
<rect x="-52.5" y="-56" fill="#FFFFFF" width="127.5" height="131.5"/>
<g>
	<polygon points="13.049,3.338 -14.667,-35.447 -29.452,-35.447 4.882,12.593 9.207,18.639 38.594,59.794 53.375,59.794 
		17.354,9.38 	"/>
	<path d="M74.456-63H-50.452C-57.384-63-63-57.384-63-50.452V74.456C-63,81.38-57.384,87-50.452,87H74.456
		C81.38,87,87,81.38,87,74.456V-50.452C87-57.384,81.38-63,74.456-63z M34.06,66.546L4.316,24.185l-37.237,42.361h-9.625
		l42.594-48.44l-42.594-60.651h32.486L18.099-2.442l35.283-40.104h9.621L22.387,3.65l44.159,62.896H34.06z"/>
</g>
</svg>
