<?xml version="1.0" encoding="utf-8"?>
<!-- Generator: Adobe Illustrator 15.0.0, SVG Export Plug-In . SVG Version: 6.00 Build 0)  -->
<!DOCTYPE svg PUBLIC "-//W3C//DTD SVG 1.1//EN" "http://www.w3.org/Graphics/SVG/1.1/DTD/svg11.dtd">
<svg version="1.1" id="Layer_1" xmlns="http://www.w3.org/2000/svg" xmlns:xlink="http://www.w3.org/1999/xlink" x="0px" y="0px"
	 width="110px" height="100px" viewBox="0 0 110 100" enable-background="new 0 0 110 100" xml:space="preserve">
<rect x="1.5" y="-8.407" fill="#CCCCCC" width="107.488" height="115.814"/>
<g>
	<path fill="#FFFFFF" d="M13.33,52.923v-5.345h1.079v5.345H13.33z"/>
	<path fill="#FFFFFF" d="M15.423,52.923v-5.345h1.615l0.971,3.647l0.958-3.647h1.618v5.345h-1.003v-4.208l-1.06,4.208h-1.039
		l-1.058-4.208v4.208H15.423z"/>
	<path fill="#FFFFFF" d="M26.477,52.923h-1.174l-0.466-1.215H22.7l-0.442,1.215h-1.144l2.081-5.345h1.142L26.477,52.923z
		 M24.489,50.808l-0.737-1.983l-0.722,1.983H24.489z"/>
	<path fill="#FFFFFF" d="M29.535,50.957v-0.9h2.327v2.128c-0.226,0.22-0.554,0.411-0.983,0.579
		c-0.429,0.167-0.863,0.249-1.303,0.249c-0.56,0-1.046-0.116-1.462-0.351s-0.729-0.57-0.938-1.007
		c-0.209-0.436-0.312-0.911-0.312-1.423c0-0.557,0.115-1.051,0.348-1.484c0.233-0.432,0.576-0.763,1.025-0.995
		c0.343-0.178,0.769-0.266,1.28-0.266c0.663,0,1.181,0.139,1.554,0.417c0.374,0.277,0.614,0.662,0.721,1.154l-1.073,0.2
		c-0.075-0.263-0.216-0.47-0.425-0.621c-0.207-0.152-0.467-0.229-0.777-0.229c-0.472,0-0.847,0.15-1.125,0.448
		c-0.278,0.3-0.417,0.743-0.417,1.331c0,0.634,0.141,1.11,0.422,1.426c0.282,0.318,0.653,0.478,1.109,0.478
		c0.226,0,0.452-0.046,0.68-0.135c0.228-0.088,0.422-0.195,0.584-0.321v-0.679H29.535z"/>
	<path fill="#FFFFFF" d="M32.857,52.923v-5.345h3.962v0.903h-2.884v1.185h2.684v0.901h-2.684v1.454h2.986v0.901H32.857z"/>
	<path fill="#FFFFFF" d="M39.911,52.923v-5.345h1.731c0.656,0,1.084,0.027,1.283,0.08c0.307,0.081,0.563,0.254,0.77,0.523
		c0.207,0.269,0.311,0.616,0.311,1.042c0,0.328-0.06,0.604-0.179,0.828c-0.12,0.224-0.271,0.399-0.455,0.526
		c-0.183,0.128-0.369,0.212-0.559,0.253c-0.258,0.052-0.631,0.077-1.12,0.077H40.99v2.017H39.911z M40.99,48.481v1.517h0.591
		c0.425,0,0.709-0.028,0.853-0.083s0.257-0.144,0.338-0.263c0.082-0.12,0.122-0.257,0.122-0.416c0-0.194-0.058-0.354-0.171-0.48
		c-0.115-0.127-0.258-0.206-0.435-0.238c-0.127-0.025-0.387-0.037-0.776-0.037H40.99z"/>
	<path fill="#FFFFFF" d="M44.92,52.923v-5.302h1.079v4.4h2.684v0.901H44.92z"/>
	<path fill="#FFFFFF" d="M54.271,52.923h-1.174l-0.466-1.215h-2.137l-0.442,1.215H48.91l2.081-5.345h1.141L54.271,52.923z
		 M52.285,50.808l-0.735-1.983l-0.722,1.983H52.285z"/>
	<path fill="#FFFFFF" d="M58.264,50.957l1.046,0.332c-0.159,0.584-0.427,1.017-0.8,1.3c-0.373,0.282-0.846,0.424-1.42,0.424
		c-0.71,0-1.294-0.241-1.749-0.727c-0.459-0.485-0.687-1.146-0.687-1.989c0-0.89,0.229-1.581,0.689-2.072
		c0.458-0.492,1.063-0.738,1.812-0.738c0.654,0,1.185,0.193,1.594,0.579c0.242,0.229,0.425,0.557,0.546,0.984l-1.067,0.256
		c-0.062-0.278-0.195-0.497-0.396-0.657c-0.201-0.161-0.444-0.241-0.73-0.241c-0.397,0-0.72,0.143-0.965,0.426
		c-0.248,0.285-0.371,0.746-0.371,1.382c0,0.677,0.122,1.157,0.365,1.444c0.242,0.287,0.56,0.431,0.947,0.431
		c0.286,0,0.533-0.092,0.74-0.274C58.024,51.636,58.174,51.35,58.264,50.957z"/>
	<path fill="#FFFFFF" d="M60.236,52.923v-5.345h3.962v0.903h-2.884v1.185h2.684v0.901h-2.684v1.454h2.986v0.901H60.236z"/>
	<path fill="#FFFFFF" d="M65.221,52.923v-5.345h1.078v2.103h2.114v-2.103h1.078v5.345h-1.078v-2.338h-2.114v2.338H65.221z"/>
	<path fill="#FFFFFF" d="M70.389,50.283c0-0.545,0.082-1.001,0.244-1.371c0.121-0.273,0.288-0.518,0.499-0.733
		c0.21-0.217,0.439-0.377,0.69-0.481c0.333-0.141,0.717-0.211,1.152-0.211c0.787,0,1.417,0.244,1.89,0.732
		c0.474,0.489,0.71,1.168,0.71,2.039c0,0.861-0.235,1.537-0.704,2.026c-0.47,0.486-1.097,0.729-1.882,0.729
		c-0.794,0-1.427-0.241-1.896-0.727C70.624,51.801,70.389,51.134,70.389,50.283z M71.501,50.247c0,0.605,0.141,1.063,0.421,1.375
		c0.277,0.312,0.632,0.47,1.063,0.47c0.431,0,0.782-0.155,1.06-0.466c0.274-0.31,0.413-0.774,0.413-1.394
		c0-0.613-0.134-1.07-0.402-1.372c-0.269-0.3-0.626-0.452-1.07-0.452c-0.446,0-0.804,0.152-1.075,0.458
		C71.638,49.171,71.501,49.631,71.501,50.247z"/>
	<path fill="#FFFFFF" d="M76.445,52.923v-5.302h1.078v4.4h2.684v0.901H76.445z"/>
	<path fill="#FFFFFF" d="M80.973,47.578h1.973c0.444,0,0.783,0.034,1.017,0.103c0.313,0.091,0.583,0.256,0.806,0.492
		c0.225,0.236,0.395,0.523,0.511,0.865c0.117,0.342,0.175,0.763,0.175,1.263c0,0.441-0.054,0.819-0.164,1.138
		c-0.133,0.389-0.324,0.704-0.573,0.944c-0.186,0.183-0.439,0.324-0.758,0.426c-0.236,0.074-0.556,0.114-0.954,0.114h-2.031V47.578z
		 M82.052,48.481v3.541h0.806c0.302,0,0.519-0.017,0.652-0.05c0.176-0.044,0.321-0.118,0.437-0.223
		c0.115-0.105,0.209-0.277,0.282-0.517c0.072-0.239,0.109-0.565,0.109-0.979c0-0.413-0.037-0.729-0.109-0.952
		c-0.073-0.221-0.175-0.394-0.307-0.518c-0.132-0.124-0.297-0.208-0.5-0.251c-0.149-0.034-0.446-0.052-0.885-0.052H82.052z"/>
	<path fill="#FFFFFF" d="M86.368,52.923v-5.345h3.963v0.903h-2.884v1.185h2.684v0.901h-2.684v1.454h2.986v0.901H86.368z"/>
	<path fill="#FFFFFF" d="M91.353,52.923v-5.345h2.27c0.572,0,0.987,0.048,1.247,0.144c0.258,0.096,0.465,0.267,0.62,0.512
		c0.156,0.246,0.233,0.526,0.233,0.842c0,0.401-0.116,0.731-0.354,0.994c-0.235,0.261-0.587,0.426-1.057,0.495
		c0.234,0.136,0.426,0.285,0.578,0.447c0.152,0.164,0.355,0.452,0.613,0.868l0.653,1.043h-1.291l-0.779-1.164
		c-0.278-0.415-0.467-0.676-0.568-0.784s-0.21-0.183-0.326-0.224c-0.113-0.04-0.295-0.061-0.542-0.061h-0.219v2.232H91.353z
		 M92.432,49.838h0.798c0.519,0,0.841-0.021,0.971-0.066c0.128-0.044,0.229-0.119,0.302-0.226c0.072-0.106,0.108-0.24,0.108-0.4
		c0-0.181-0.047-0.325-0.143-0.436c-0.097-0.112-0.231-0.181-0.406-0.21c-0.088-0.012-0.351-0.019-0.788-0.019h-0.842V49.838z"/>
</g>
</svg>
